<?xml version="1.0" encoding="utf-8"?>
<!-- Generator: Adobe Illustrator 25.2.1, SVG Export Plug-In . SVG Version: 6.00 Build 0)  -->
<svg version="1.1" id="Layer_1_xA0_Image_1_" xmlns="http://www.w3.org/2000/svg" xmlns:xlink="http://www.w3.org/1999/xlink"
	 x="0px" y="0px" width="747.4px" height="71.1px" viewBox="0 0 747.4 71.1" style="enable-background:new 0 0 747.4 71.1;"
	 xml:space="preserve">
<style type="text/css">
	.st0{fill:#CAA76B;}
</style>
<g>
	<path class="st0" d="M325.9,0c0.9,0.2,1.8,0.4,2.7,0.6c6.8,1.6,10.8,6.4,11.3,13.4c0.3,4-0.2,7.9-1.1,11.8
		c-1.1,4.3-3.7,7.7-6.8,10.8c-4.2,4.2-8.6,8.3-12.7,12.6c-6,6.3-11,13.5-14.7,21.5c-0.1,0.1-0.2,0.2-0.3,0.4
		c-3.8-8.1-8.6-15.4-14.7-21.8c-3.9-4.1-8-7.9-12-11.9c-1.2-1.2-2.3-2.5-3.4-3.7c-4.5-5.3-5.4-11.7-5.3-18.3
		c0.1-4.1,1.1-7.9,4.1-10.9c2.5-2.5,5.6-3.6,9-4.2c0.3,0,0.6-0.2,0.9-0.2c1.8,0,3.5,0,5.3,0c0.3,0.1,0.5,0.2,0.8,0.3
		c3.1,0.7,5.7,2.3,7.6,4.9c1.6,2.2,2.6,4.7,3.1,7.3c0.4,2,0.6,4.1,0.9,6.3c-3.8,0-7.3,0-10.9,0c0,3.5,0,7,0,10.6c3.5,0,6.9,0,10.3,0
		c1.2,12.6,1.9,25.2,4.5,37.8c2.5-12.6,3.3-25.2,4.5-37.9c3.6,0,6.9,0,10.3,0c0-3.5,0-7,0-10.6c-3.6,0-7.1,0-10.9,0
		c0.4-2.6,0.7-5.1,1.3-7.5c1.5-5.7,4.7-9.9,11-11.1c0.1,0,0.1-0.1,0.2-0.2C322.4,0,324.2,0,325.9,0z"/>
	<path class="st0" d="M747.4,35.8c-0.3,1.3-0.5,2.7-0.8,4c-2.1,7.8-7.8,12.6-16,12.8c-9,0.2-18.1,0.1-27.1,0.1
		c-0.2,0-0.3-0.1-0.6-0.1c0.2-0.3,0.3-0.6,0.4-0.7c1.3-0.2,1.2-1.2,1.2-2.1c0-6.7,0-13.4,0-20.1c0-4.7,0-9.4,0-14
		c0-1,0.3-2.2-1.3-2.4c-0.1,0-0.2-0.4-0.3-0.8c0.6,0,0.9,0,1.3,0c7.5,0,15-0.1,22.4,0c2.8,0,5.6,0.3,8.3,1c6.8,1.8,10.6,6.6,12,13.4
		c0.2,0.8,0.3,1.5,0.5,2.3C747.4,31.3,747.4,33.5,747.4,35.8z M712.4,46c5.9,0,11.6,0.2,17.3-0.1c5.3-0.2,8.3-2.8,9.2-7.8
		c0.5-2.7,0.6-5.5,0.5-8.2c-0.1-1.9-0.7-4-1.6-5.7c-1.8-3.8-5.4-5.1-9.3-5.2c-5.2-0.2-10.4-0.1-15.6-0.1c-0.1,0-0.3,0.1-0.5,0.1
		C712.4,28,712.4,37,712.4,46z"/>
	<path class="st0" d="M0,2.4c2,0,4,0.1,6,0.1c2.4,0,4.9,0,7.3,0c0.3,0,0.6,0.3,1,0.4c-0.3,0.2-0.5,0.6-0.9,0.7
		c-0.8,0.2-1.2,0.6-1.2,1.4c0,0.3,0,0.6,0,0.8c0,13.1,0,26.2,0,39.3c0,0.3,0,0.6,0,1.1c0.4,0,0.8,0.1,1.2,0.1c10.5,0,21,0,31.5,0
		c1.2,0,2.4,0.1,2.9-1.4c0.1-0.2,0.6-0.2,1-0.4c0,4,0,7.9,0,12.1c-0.5-0.2-0.8-0.4-1.1-0.6c-0.6-0.4-1.2-0.8-1.8-1.1
		c-0.3-0.1-0.7,0-1.1,0c-14.5,0-28.9,0-43.4,0c-0.4,0-0.9,0.1-1.3,0.1c0-0.4,0-0.8,0-1.2c1.2,0.1,1.8-0.5,1.8-1.7c0-0.4,0-0.8,0-1.2
		c0-14.8,0-29.6,0-44.4c0-0.4,0-0.8,0-1.2C1.8,4.1,1.2,3.5,0,3.6C0,3.2,0,2.8,0,2.4z"/>
	<path class="st0" d="M418,54.7c0.4-0.5,0.7-1,0.9-1.1c1.4-0.1,1.6-1,1.6-2.1c0-5.6,0-11.2,0-16.8c0-0.9,0-1.8,0-2.7
		c-10.7,0-21.4,0-32.2,0c0,0.4-0.1,0.9-0.1,1.3c0,5.9,0,11.8,0,17.8c0,1.2-0.1,2.5,1.7,2.6c0.2,0,0.3,0.6,0.6,1c-5,0-9.7,0-14.5,0
		c-0.2-0.6-0.1-1.1,0.7-1.1c1,0,1.3-0.7,1.4-1.5c0-0.3,0-0.6,0-1c0-15,0-30.1,0-45.1c0-1.3-0.1-2.4-1.8-2.6c-0.2,0-0.3-0.5-0.6-0.9
		c5,0,9.8,0,14.5,0c0.1,0.1,0.2,0.2,0.2,0.3c-0.3,0.2-0.5,0.6-0.9,0.7c-0.8,0.2-1.3,0.7-1.3,1.5c0,5.9,0,11.7,0,17.7
		c10.7,0,21.4,0,32.2,0c0-0.5,0-0.9,0-1.3c0-5.2,0-10.3,0-15.5c0-2-0.1-2.1-2.1-2.5c-0.3-0.7,0-1,0.8-1c4.2,0,8.5,0,12.7,0
		c0.6,0,1.1,0.1,0.8,0.9c-1.9,0.7-1.9,0.7-1.9,2.9c0,14.9,0,29.8,0,44.7c0,1.3-0.2,2.6,1.7,2.8c0.2,0,0.3,0.6,0.4,1
		C427.9,54.7,423.1,54.7,418,54.7z"/>
	<path class="st0" d="M577.9,12.3c0.6,0,1,0,1.5,0c8.1,0,16.2,0,24.3,0c2.8,0,5.6,0.2,8.2,1.3c4.9,2,7.5,5.8,7.3,10.9
		c-0.2,5.2-3,9-8.1,10.5c-0.8,0.3-1.7,0.5-2.7,0.7c0.5,0.7,0.9,1.3,1.4,1.9c3,4.2,5.9,8.4,8.9,12.5c0.4,0.6,1.2,1,1.8,1.5
		c0.2,0.2,0.3,0.4,0.5,0.6c-0.2,0.1-0.4,0.3-0.6,0.3c-3.9,0-7.7,0-11.6,0c0-0.2-0.1-0.4-0.1-0.4c1.1-0.9,0.5-1.6-0.1-2.5
		c-3.1-4.4-6.2-8.7-9.2-13.2c-0.6-0.8-1.2-1.1-2.2-1.1c-3.3,0.1-6.5,0-9.8,0c-0.1,0.2-0.1,0.3-0.1,0.4c0,4.8,0,9.5,0,14.3
		c0,0.8,0.1,1.4,1.1,1.6c0.2,0,0.4,0.3,0.8,0.7c-3.9,0-7.5,0-11.5,0c0.4-0.4,0.6-0.6,0.8-0.8c0.3-0.4,0.7-0.9,0.9-1.3
		c0.1-0.3,0.1-0.7,0.1-1.1c0-11.2,0-22.5,0-33.7c0-1,0.4-2.3-1.3-2.5C578,13.1,578,12.6,577.9,12.3z M587.5,28.9
		c5.9,0,11.6,0,17.3,0c1.2,0,2.5-0.3,3.7-0.8c1.8-0.7,2.8-2.2,2.8-4.2c0-2.1-1.1-3.5-2.9-4.1c-1.4-0.5-2.9-0.7-4.3-0.8
		c-5.1-0.1-10.2,0-15.2,0c-0.4,0-0.8,0-1.3,0C587.5,22.3,587.5,25.5,587.5,28.9z"/>
	<path class="st0" d="M651.3,46c0.5,0,1,0,1.5,0c8.2,0,16.4,0,24.6,0c1.1,0,2.3,0.3,2.8-1.2c0-0.1,0.3-0.2,0.4-0.1
		c0.2,0.1,0.4,0.3,0.4,0.5c0,2.7,0,5.4,0,8c0,0.2-0.2,0.5-0.2,0.5c-0.2,0-0.5-0.1-0.6-0.2c-0.5-1-1.4-0.9-2.3-0.9
		c-11.5,0-23,0-34.4,0c-0.5,0-0.9,0-1.6,0c0.2-0.4,0.3-0.8,0.5-0.8c1.1-0.2,1-1,1-1.9c0-11.6,0-23.3,0-34.9c0-0.9,0.1-1.7-1.1-1.9
		c-0.1,0-0.2-0.4-0.3-0.8c0.6,0,1.1,0,1.6,0c11.3,0,22.6,0,33.8,0c0.9,0,2,0.2,2.4-1c0-0.1,0.4-0.2,0.5-0.1c0.1,0.1,0.3,0.3,0.3,0.5
		c0,2.7,0,5.4,0,8.2c0,0.2-0.2,0.4-0.3,0.6c-0.2-0.1-0.4-0.3-0.6-0.4c-0.5-0.3-1-0.9-1.5-0.9c-8.8-0.1-17.7,0-26.5,0
		c-0.1,0-0.1,0.1-0.3,0.1c0,3.1,0,6.2,0,9.5c0.4,0,0.8,0.1,1.3,0.1c5.2,0,10.3,0,15.5,0c1,0,2,0.1,2.4-1.2c0-0.1,0.4-0.2,0.7-0.3
		c0,3.2,0,6.2,0,9.5c-0.4-0.2-0.6-0.4-0.8-0.5c-0.5-0.3-0.9-0.8-1.4-0.8c-5.8-0.1-11.7,0-17.6,0C651.3,38.9,651.3,42.4,651.3,46z"/>
	<path class="st0" d="M200.2,46c0.5,0,1,0,1.5,0c8.2,0,16.4,0,24.6,0c1.1,0,2.3,0.3,2.8-1.2c0-0.1,0.4-0.2,0.5-0.1
		c0.1,0.1,0.3,0.4,0.3,0.6c0,2.8,0,5.5,0,8.4c-0.3,0-0.7,0-0.8-0.1c-0.5-1.2-1.5-1-2.4-1c-11.5,0-23,0-34.4,0c-0.4,0-0.9,0-1.6,0
		c0.3-0.4,0.4-0.8,0.5-0.8c1-0.2,1.1-0.9,1.1-1.8c0-3,0-5.9,0-8.9c0-8.5,0-17,0-25.4c0-1.1,0.4-2.4-1.3-2.7c-0.1,0-0.1-0.4-0.2-0.8
		c0.6,0,1,0,1.5,0c11.4,0,22.7,0,34.1,0c0.9,0,1.8,0.2,2.2-1c0-0.1,0.4-0.2,0.5-0.2c0.2,0.1,0.3,0.3,0.3,0.5c0,2.7,0,5.4,0,8.2
		c0,0.2-0.2,0.5-0.4,0.5c-0.2,0-0.3-0.2-0.5-0.3c-0.5-0.3-1-1-1.5-1c-8.9-0.1-17.8,0-26.7,0c0,3.2,0,6.4,0,9.7
		c0.4,0,0.9,0.1,1.4,0.1c5,0,10,0,15,0c1.1,0,2.4,0.2,2.9-1.3c0-0.1,0.2-0.1,0.3-0.1c0.1,0,0.1,0,0.3,0.1c0,3,0,6.1,0,9.3
		c-0.3-0.1-0.6-0.1-0.7-0.3c-0.4-1.1-1.2-1.1-2.2-1.1c-5.6,0-11.3,0-17,0C200.2,38.9,200.2,42.4,200.2,46z"/>
	<path class="st0" d="M89.2,53.2c-5.3-0.1-9.6-0.8-13.5-3c-7.3-4-10.5-10.4-10.2-18.5C65.8,19,75.2,13.1,84.7,12
		c4.8-0.6,9.6-0.1,14.1,1.6c9.2,3.6,13.4,11.6,12.6,20.9c-0.9,10.4-8.3,16.7-18.1,18.2C91.7,53,90,53.1,89.2,53.2z M89.1,18.4
		c-9.4,0-15.1,5-15.7,13.2c-0.5,6.8,3.3,12.4,9.9,14.3c2.8,0.8,5.7,1,8.5,0.5c5.2-0.9,9.2-3.5,11-8.6c1.8-5.3,1.3-10.4-2.6-14.7
		C97.1,19.5,93,18.4,89.1,18.4z"/>
	<path class="st0" d="M464.6,52.5c-3.3,0-6.6,0-10.1,0c0.3-0.4,0.4-0.6,0.6-0.8c0.5-0.6,1.2-1.1,1.5-1.7
		c5.2-11.6,10.4-23.2,15.6-34.9c0.4-0.8,0.5-1.5-0.6-1.9c-0.2-0.1-0.2-0.5-0.4-0.9c3,0,5.8,0,8.6,0c1,0,2,0,3,0
		c0.2,0,0.5,0.2,0.6,0.4c0.1,0.1-0.1,0.5-0.3,0.5c-1.1,0.4-0.8,1.1-0.5,1.8c3,6.5,6.1,13,9.1,19.5c2.4,5,4.7,10.1,7.1,15.1
		c0.4,0.9,0.7,1.9,1.9,2.2c0.1,0,0.3,0.4,0.3,0.4c-0.1,0.2-0.3,0.3-0.5,0.3c-1.1,0-2.2,0-3.4,0c-2.3,0-4.7,0-7.1,0
		c0-0.3,0-0.6,0.1-0.6c1.3-0.6,0.7-1.5,0.3-2.4c-1.1-2.2-2.1-4.5-3.2-6.7c-0.3-0.7-0.8-0.9-1.5-0.9c-5.6,0-11.2,0-16.8,0
		c-0.7,0-1.1,0.2-1.4,0.9c-1,2.2-2,4.4-3.1,6.6c-0.4,0.9-0.9,1.7,0.2,2.5C464.7,52,464.6,52.3,464.6,52.5z M476.9,21.3
		c-2.2,4.9-4.3,9.5-6.4,14.2c4.4,0,8.6,0,12.9,0C481.3,30.8,479.2,26.1,476.9,21.3z"/>
	<path class="st0" d="M155.7,52.5c-3.6,0-7.2,0-11,0c0.1-0.3,0.1-0.7,0.2-0.7c1-0.4,0.7-1,0.4-1.6c-5.2-11.7-10.5-23.5-15.7-35.2
		c-0.4-0.8-0.9-1.5-1.8-1.7c-0.2,0-0.3-0.3-0.5-0.5c0.2-0.1,0.5-0.4,0.7-0.4c3.4,0,6.9,0,10.3,0c0.2,0,0.5,0.1,0.6,0.3
		c0.1,0.1,0,0.6-0.2,0.6c-1.3,0.5-0.7,1.3-0.4,2c2.2,4.9,4.5,9.9,6.7,14.8c1.7,3.7,3.3,7.3,5,11c0.1,0.2,0.3,0.5,0.5,0.9
		c1.5-3.4,3-6.8,4.4-10.1c2.4-5.5,4.9-11.1,7.4-16.6c0.3-0.7,0.8-1.5-0.4-2c-0.2-0.1-0.2-0.5-0.4-0.9c3.4,0,6.7,0,9.9,0
		c0.2,0,0.4,0.3,0.6,0.4c-0.1,0.2-0.2,0.4-0.4,0.5c-0.6,0.7-1.4,1.2-1.7,2c-3.7,8.3-7.3,16.7-11,25c-1.4,3.1-2.7,6.2-4.1,9.3
		c-0.4,0.9-1,1.9,0.6,2.4C155.7,51.9,155.7,52.3,155.7,52.5z"/>
	<path class="st0" d="M541.2,18.9c0,0.5,0,0.9,0,1.3c0,9.8,0,19.6,0,29.4c0,1.1,0,2,1.4,2.2c0.1,0,0.2,0.4,0.5,0.8
		c-2.5,0-4.8,0-7.1,0c-1.3,0-2.6,0-3.8,0c-0.2,0-0.4-0.2-0.6-0.4c0.1-0.1,0.3-0.4,0.5-0.4c0.9-0.2,1.2-0.7,1.2-1.6
		c0-10.2,0-20.5,0-30.7c0-0.1,0-0.2-0.1-0.5c-0.4,0-0.7,0-1.1,0c-3.9,0-7.8,0-11.6,0c-0.9,0-2-0.1-2.3,1.1c0,0.1-0.4,0.2-0.5,0.2
		c-0.1-0.2-0.3-0.5-0.3-0.7c0-2.1,0-4.2,0-6.4c0-0.6,0-1.1,0-1.7c0-0.2,0.2-0.4,0.4-0.5c0.1,0,0.4,0.1,0.4,0.3c0.4,1.1,1.2,1,2.1,1
		c10,0,20.1,0,30.1,0c1.4,0,2.9,0.1,4.3,0c0.6,0,1.1-0.6,1.6-0.9c0.2-0.1,0.3-0.2,0.5-0.3c0.1,0.2,0.3,0.3,0.3,0.5
		c0,2.7,0,5.4,0,8.2c0,0.2-0.2,0.4-0.3,0.5c-0.2-0.1-0.3-0.2-0.5-0.4c-0.5-0.3-1.1-0.9-1.6-0.9C550.3,18.9,545.8,18.9,541.2,18.9z"
		/>
</g>
</svg>
